<mxfile host="Electron" agent="Mozilla/5.0 (Windows NT 10.0; Win64; x64) AppleWebKit/537.36 (KHTML, like Gecko) draw.io/28.1.2 Chrome/138.0.7204.243 Electron/37.4.0 Safari/537.36" version="28.1.2">
  <diagram name="Page-1" id="z6iwsZZdMz4v8cv4b5W8">
    <mxGraphModel dx="3226" dy="1306" grid="1" gridSize="10" guides="1" tooltips="1" connect="1" arrows="1" fold="1" page="1" pageScale="1" pageWidth="1100" pageHeight="850" math="0" shadow="0">
      <root>
        <mxCell id="0" />
        <mxCell id="1" parent="0" />
        <mxCell id="MRD3C-GznaZoyH5pfZhT-1" value="Note: Never mix perspectives of class diagrams" style="text;html=1;align=center;verticalAlign=middle;whiteSpace=wrap;rounded=0;fillColor=#f8cecc;strokeColor=#b85450;" parent="1" vertex="1">
          <mxGeometry x="20" y="20" width="300" height="20" as="geometry" />
        </mxCell>
        <mxCell id="MRD3C-GznaZoyH5pfZhT-2" value="Perspectives of Class Diagram" style="text;html=1;align=center;verticalAlign=middle;whiteSpace=wrap;rounded=0;fillColor=#d5e8d4;strokeColor=#82b366;" parent="1" vertex="1">
          <mxGeometry x="240" y="60" width="220" height="30" as="geometry" />
        </mxCell>
        <mxCell id="MRD3C-GznaZoyH5pfZhT-3" value="Conceptual" style="text;html=1;align=center;verticalAlign=middle;whiteSpace=wrap;rounded=0;" parent="1" vertex="1">
          <mxGeometry x="80" y="110" width="70" height="30" as="geometry" />
        </mxCell>
        <mxCell id="MRD3C-GznaZoyH5pfZhT-4" value="Specification" style="text;html=1;align=center;verticalAlign=middle;whiteSpace=wrap;rounded=0;" parent="1" vertex="1">
          <mxGeometry x="300" y="110" width="80" height="30" as="geometry" />
        </mxCell>
        <mxCell id="MRD3C-GznaZoyH5pfZhT-5" value="Implementation" style="text;html=1;align=center;verticalAlign=middle;whiteSpace=wrap;rounded=0;" parent="1" vertex="1">
          <mxGeometry x="560" y="110" width="100" height="30" as="geometry" />
        </mxCell>
        <mxCell id="MRD3C-GznaZoyH5pfZhT-6" value="Phone" style="html=1;whiteSpace=wrap;" parent="1" vertex="1">
          <mxGeometry x="70" y="150" width="90" height="30" as="geometry" />
        </mxCell>
        <mxCell id="MRD3C-GznaZoyH5pfZhT-7" value="&lt;p style=&quot;margin:0px;margin-top:4px;text-align:center;&quot;&gt;&lt;b&gt;Phone&lt;/b&gt;&lt;/p&gt;&lt;hr size=&quot;1&quot; style=&quot;border-style:solid;&quot;&gt;&lt;div style=&quot;height:2px;&quot;&gt;&lt;/div&gt;" style="verticalAlign=top;align=left;overflow=fill;html=1;whiteSpace=wrap;" parent="1" vertex="1">
          <mxGeometry x="65" y="200" width="100" height="50" as="geometry" />
        </mxCell>
        <mxCell id="MRD3C-GznaZoyH5pfZhT-8" value="Phone" style="swimlane;fontStyle=1;align=center;verticalAlign=top;childLayout=stackLayout;horizontal=1;startSize=26;horizontalStack=0;resizeParent=1;resizeParentMax=0;resizeLast=0;collapsible=1;marginBottom=0;whiteSpace=wrap;html=1;" parent="1" vertex="1">
          <mxGeometry x="50" y="270" width="140" height="112" as="geometry" />
        </mxCell>
        <mxCell id="MRD3C-GznaZoyH5pfZhT-9" value="+ camera" style="text;strokeColor=none;fillColor=none;align=left;verticalAlign=top;spacingLeft=4;spacingRight=4;overflow=hidden;rotatable=0;points=[[0,0.5],[1,0.5]];portConstraint=eastwest;whiteSpace=wrap;html=1;" parent="MRD3C-GznaZoyH5pfZhT-8" vertex="1">
          <mxGeometry y="26" width="140" height="26" as="geometry" />
        </mxCell>
        <mxCell id="MRD3C-GznaZoyH5pfZhT-12" value="+ screen" style="text;strokeColor=none;fillColor=none;align=left;verticalAlign=top;spacingLeft=4;spacingRight=4;overflow=hidden;rotatable=0;points=[[0,0.5],[1,0.5]];portConstraint=eastwest;whiteSpace=wrap;html=1;" parent="MRD3C-GznaZoyH5pfZhT-8" vertex="1">
          <mxGeometry y="52" width="140" height="26" as="geometry" />
        </mxCell>
        <mxCell id="MRD3C-GznaZoyH5pfZhT-10" value="" style="line;strokeWidth=1;fillColor=none;align=left;verticalAlign=middle;spacingTop=-1;spacingLeft=3;spacingRight=3;rotatable=0;labelPosition=right;points=[];portConstraint=eastwest;strokeColor=inherit;" parent="MRD3C-GznaZoyH5pfZhT-8" vertex="1">
          <mxGeometry y="78" width="140" height="8" as="geometry" />
        </mxCell>
        <mxCell id="MRD3C-GznaZoyH5pfZhT-11" value="+ call" style="text;strokeColor=none;fillColor=none;align=left;verticalAlign=top;spacingLeft=4;spacingRight=4;overflow=hidden;rotatable=0;points=[[0,0.5],[1,0.5]];portConstraint=eastwest;whiteSpace=wrap;html=1;" parent="MRD3C-GznaZoyH5pfZhT-8" vertex="1">
          <mxGeometry y="86" width="140" height="26" as="geometry" />
        </mxCell>
        <mxCell id="MRD3C-GznaZoyH5pfZhT-13" value="Phone" style="swimlane;fontStyle=1;align=center;verticalAlign=top;childLayout=stackLayout;horizontal=1;startSize=26;horizontalStack=0;resizeParent=1;resizeParentMax=0;resizeLast=0;collapsible=1;marginBottom=0;whiteSpace=wrap;html=1;" parent="1" vertex="1">
          <mxGeometry x="250" y="150" width="200" height="216" as="geometry" />
        </mxCell>
        <mxCell id="MRD3C-GznaZoyH5pfZhT-14" value="+ camera: ICamera" style="text;strokeColor=none;fillColor=none;align=left;verticalAlign=top;spacingLeft=4;spacingRight=4;overflow=hidden;rotatable=0;points=[[0,0.5],[1,0.5]];portConstraint=eastwest;whiteSpace=wrap;html=1;" parent="MRD3C-GznaZoyH5pfZhT-13" vertex="1">
          <mxGeometry y="26" width="200" height="26" as="geometry" />
        </mxCell>
        <mxCell id="MRD3C-GznaZoyH5pfZhT-17" value="+ screen: IScreen" style="text;strokeColor=none;fillColor=none;align=left;verticalAlign=top;spacingLeft=4;spacingRight=4;overflow=hidden;rotatable=0;points=[[0,0.5],[1,0.5]];portConstraint=eastwest;whiteSpace=wrap;html=1;" parent="MRD3C-GznaZoyH5pfZhT-13" vertex="1">
          <mxGeometry y="52" width="200" height="26" as="geometry" />
        </mxCell>
        <mxCell id="MRD3C-GznaZoyH5pfZhT-18" value="+ turnOnOffButton: IButton" style="text;strokeColor=none;fillColor=none;align=left;verticalAlign=top;spacingLeft=4;spacingRight=4;overflow=hidden;rotatable=0;points=[[0,0.5],[1,0.5]];portConstraint=eastwest;whiteSpace=wrap;html=1;" parent="MRD3C-GznaZoyH5pfZhT-13" vertex="1">
          <mxGeometry y="78" width="200" height="26" as="geometry" />
        </mxCell>
        <mxCell id="MRD3C-GznaZoyH5pfZhT-19" value="+ volumeUpButton: IButton" style="text;strokeColor=none;fillColor=none;align=left;verticalAlign=top;spacingLeft=4;spacingRight=4;overflow=hidden;rotatable=0;points=[[0,0.5],[1,0.5]];portConstraint=eastwest;whiteSpace=wrap;html=1;" parent="MRD3C-GznaZoyH5pfZhT-13" vertex="1">
          <mxGeometry y="104" width="200" height="26" as="geometry" />
        </mxCell>
        <mxCell id="MRD3C-GznaZoyH5pfZhT-20" value="+ volumeDownButton: IButton" style="text;strokeColor=none;fillColor=none;align=left;verticalAlign=top;spacingLeft=4;spacingRight=4;overflow=hidden;rotatable=0;points=[[0,0.5],[1,0.5]];portConstraint=eastwest;whiteSpace=wrap;html=1;" parent="MRD3C-GznaZoyH5pfZhT-13" vertex="1">
          <mxGeometry y="130" width="200" height="26" as="geometry" />
        </mxCell>
        <mxCell id="MRD3C-GznaZoyH5pfZhT-15" value="" style="line;strokeWidth=1;fillColor=none;align=left;verticalAlign=middle;spacingTop=-1;spacingLeft=3;spacingRight=3;rotatable=0;labelPosition=right;points=[];portConstraint=eastwest;strokeColor=inherit;" parent="MRD3C-GznaZoyH5pfZhT-13" vertex="1">
          <mxGeometry y="156" width="200" height="8" as="geometry" />
        </mxCell>
        <mxCell id="MRD3C-GznaZoyH5pfZhT-16" value="+ call(number: string): void" style="text;strokeColor=none;fillColor=none;align=left;verticalAlign=top;spacingLeft=4;spacingRight=4;overflow=hidden;rotatable=0;points=[[0,0.5],[1,0.5]];portConstraint=eastwest;whiteSpace=wrap;html=1;" parent="MRD3C-GznaZoyH5pfZhT-13" vertex="1">
          <mxGeometry y="164" width="200" height="26" as="geometry" />
        </mxCell>
        <mxCell id="MRD3C-GznaZoyH5pfZhT-21" value="+ sendMessage(text: string): void" style="text;strokeColor=none;fillColor=none;align=left;verticalAlign=top;spacingLeft=4;spacingRight=4;overflow=hidden;rotatable=0;points=[[0,0.5],[1,0.5]];portConstraint=eastwest;whiteSpace=wrap;html=1;" parent="MRD3C-GznaZoyH5pfZhT-13" vertex="1">
          <mxGeometry y="190" width="200" height="26" as="geometry" />
        </mxCell>
        <mxCell id="MRD3C-GznaZoyH5pfZhT-22" value="Phone" style="swimlane;fontStyle=1;align=center;verticalAlign=top;childLayout=stackLayout;horizontal=1;startSize=26;horizontalStack=0;resizeParent=1;resizeParentMax=0;resizeLast=0;collapsible=1;marginBottom=0;whiteSpace=wrap;html=1;" parent="1" vertex="1">
          <mxGeometry x="510" y="150" width="230" height="294" as="geometry" />
        </mxCell>
        <mxCell id="MRD3C-GznaZoyH5pfZhT-23" value="+ camera: ICamera" style="text;strokeColor=none;fillColor=none;align=left;verticalAlign=top;spacingLeft=4;spacingRight=4;overflow=hidden;rotatable=0;points=[[0,0.5],[1,0.5]];portConstraint=eastwest;whiteSpace=wrap;html=1;" parent="MRD3C-GznaZoyH5pfZhT-22" vertex="1">
          <mxGeometry y="26" width="230" height="26" as="geometry" />
        </mxCell>
        <mxCell id="MRD3C-GznaZoyH5pfZhT-24" value="+ screen: IScreen" style="text;strokeColor=none;fillColor=none;align=left;verticalAlign=top;spacingLeft=4;spacingRight=4;overflow=hidden;rotatable=0;points=[[0,0.5],[1,0.5]];portConstraint=eastwest;whiteSpace=wrap;html=1;" parent="MRD3C-GznaZoyH5pfZhT-22" vertex="1">
          <mxGeometry y="52" width="230" height="26" as="geometry" />
        </mxCell>
        <mxCell id="MRD3C-GznaZoyH5pfZhT-25" value="+ turnOnOffButton: IButton" style="text;strokeColor=none;fillColor=none;align=left;verticalAlign=top;spacingLeft=4;spacingRight=4;overflow=hidden;rotatable=0;points=[[0,0.5],[1,0.5]];portConstraint=eastwest;whiteSpace=wrap;html=1;" parent="MRD3C-GznaZoyH5pfZhT-22" vertex="1">
          <mxGeometry y="78" width="230" height="26" as="geometry" />
        </mxCell>
        <mxCell id="MRD3C-GznaZoyH5pfZhT-26" value="+ volumeUpButton: IButton" style="text;strokeColor=none;fillColor=none;align=left;verticalAlign=top;spacingLeft=4;spacingRight=4;overflow=hidden;rotatable=0;points=[[0,0.5],[1,0.5]];portConstraint=eastwest;whiteSpace=wrap;html=1;" parent="MRD3C-GznaZoyH5pfZhT-22" vertex="1">
          <mxGeometry y="104" width="230" height="26" as="geometry" />
        </mxCell>
        <mxCell id="MRD3C-GznaZoyH5pfZhT-27" value="+ volumeDownButton: IButton" style="text;strokeColor=none;fillColor=none;align=left;verticalAlign=top;spacingLeft=4;spacingRight=4;overflow=hidden;rotatable=0;points=[[0,0.5],[1,0.5]];portConstraint=eastwest;whiteSpace=wrap;html=1;" parent="MRD3C-GznaZoyH5pfZhT-22" vertex="1">
          <mxGeometry y="130" width="230" height="26" as="geometry" />
        </mxCell>
        <mxCell id="MRD3C-GznaZoyH5pfZhT-31" value="- cameraSensor: ISensor" style="text;strokeColor=none;fillColor=none;align=left;verticalAlign=top;spacingLeft=4;spacingRight=4;overflow=hidden;rotatable=0;points=[[0,0.5],[1,0.5]];portConstraint=eastwest;whiteSpace=wrap;html=1;" parent="MRD3C-GznaZoyH5pfZhT-22" vertex="1">
          <mxGeometry y="156" width="230" height="26" as="geometry" />
        </mxCell>
        <mxCell id="MRD3C-GznaZoyH5pfZhT-33" value="- maxCalls: int" style="text;strokeColor=none;fillColor=none;align=left;verticalAlign=top;spacingLeft=4;spacingRight=4;overflow=hidden;rotatable=0;points=[[0,0.5],[1,0.5]];portConstraint=eastwest;whiteSpace=wrap;html=1;" parent="MRD3C-GznaZoyH5pfZhT-22" vertex="1">
          <mxGeometry y="182" width="230" height="26" as="geometry" />
        </mxCell>
        <mxCell id="MRD3C-GznaZoyH5pfZhT-28" value="" style="line;strokeWidth=1;fillColor=none;align=left;verticalAlign=middle;spacingTop=-1;spacingLeft=3;spacingRight=3;rotatable=0;labelPosition=right;points=[];portConstraint=eastwest;strokeColor=inherit;" parent="MRD3C-GznaZoyH5pfZhT-22" vertex="1">
          <mxGeometry y="208" width="230" height="8" as="geometry" />
        </mxCell>
        <mxCell id="MRD3C-GznaZoyH5pfZhT-29" value="+ call(number: string): void" style="text;strokeColor=none;fillColor=none;align=left;verticalAlign=top;spacingLeft=4;spacingRight=4;overflow=hidden;rotatable=0;points=[[0,0.5],[1,0.5]];portConstraint=eastwest;whiteSpace=wrap;html=1;" parent="MRD3C-GznaZoyH5pfZhT-22" vertex="1">
          <mxGeometry y="216" width="230" height="26" as="geometry" />
        </mxCell>
        <mxCell id="MRD3C-GznaZoyH5pfZhT-30" value="+ sendMessage(text: string): void" style="text;strokeColor=none;fillColor=none;align=left;verticalAlign=top;spacingLeft=4;spacingRight=4;overflow=hidden;rotatable=0;points=[[0,0.5],[1,0.5]];portConstraint=eastwest;whiteSpace=wrap;html=1;" parent="MRD3C-GznaZoyH5pfZhT-22" vertex="1">
          <mxGeometry y="242" width="230" height="26" as="geometry" />
        </mxCell>
        <mxCell id="MRD3C-GznaZoyH5pfZhT-32" value="- validateNumber(number: string): void" style="text;strokeColor=none;fillColor=none;align=left;verticalAlign=top;spacingLeft=4;spacingRight=4;overflow=hidden;rotatable=0;points=[[0,0.5],[1,0.5]];portConstraint=eastwest;whiteSpace=wrap;html=1;" parent="MRD3C-GznaZoyH5pfZhT-22" vertex="1">
          <mxGeometry y="268" width="230" height="26" as="geometry" />
        </mxCell>
        <mxCell id="MRD3C-GznaZoyH5pfZhT-34" value="Relationships between classes" style="text;html=1;align=center;verticalAlign=middle;whiteSpace=wrap;rounded=0;fillColor=#d5e8d4;strokeColor=#82b366;" parent="1" vertex="1">
          <mxGeometry x="270" y="470" width="210" height="30" as="geometry" />
        </mxCell>
        <mxCell id="MRD3C-GznaZoyH5pfZhT-35" value="ClassA" style="html=1;whiteSpace=wrap;" parent="1" vertex="1">
          <mxGeometry x="285" y="560" width="110" height="50" as="geometry" />
        </mxCell>
        <mxCell id="MRD3C-GznaZoyH5pfZhT-36" value="ClassB" style="html=1;whiteSpace=wrap;" parent="1" vertex="1">
          <mxGeometry x="495" y="560" width="110" height="50" as="geometry" />
        </mxCell>
        <mxCell id="MRD3C-GznaZoyH5pfZhT-38" value="&lt;h1 style=&quot;margin-top: 0px;&quot;&gt;Association&lt;/h1&gt;&lt;p&gt;Association are relationships between classes that have a any kind of dependency.&lt;/p&gt;" style="text;html=1;whiteSpace=wrap;overflow=hidden;rounded=0;" parent="1" vertex="1">
          <mxGeometry x="70" y="530" width="180" height="110" as="geometry" />
        </mxCell>
        <mxCell id="MRD3C-GznaZoyH5pfZhT-39" value="" style="endArrow=none;html=1;edgeStyle=orthogonalEdgeStyle;rounded=0;exitX=1;exitY=0.5;exitDx=0;exitDy=0;entryX=0;entryY=0.5;entryDx=0;entryDy=0;" parent="1" source="MRD3C-GznaZoyH5pfZhT-35" target="MRD3C-GznaZoyH5pfZhT-36" edge="1">
          <mxGeometry relative="1" as="geometry">
            <mxPoint x="440" y="620" as="sourcePoint" />
            <mxPoint x="600" y="620" as="targetPoint" />
          </mxGeometry>
        </mxCell>
        <mxCell id="MRD3C-GznaZoyH5pfZhT-42" value="&lt;h1 style=&quot;margin-top: 0px;&quot;&gt;Inheritance&lt;/h1&gt;&lt;p&gt;It is a generalization relationship between a more general class and a more specific class&lt;/p&gt;" style="text;html=1;whiteSpace=wrap;overflow=hidden;rounded=0;" parent="1" vertex="1">
          <mxGeometry x="70" y="660" width="180" height="120" as="geometry" />
        </mxCell>
        <mxCell id="MRD3C-GznaZoyH5pfZhT-43" value="SuperClass" style="html=1;whiteSpace=wrap;" parent="1" vertex="1">
          <mxGeometry x="395" y="640" width="110" height="50" as="geometry" />
        </mxCell>
        <mxCell id="MRD3C-GznaZoyH5pfZhT-44" value="SubClassA" style="html=1;whiteSpace=wrap;" parent="1" vertex="1">
          <mxGeometry x="310" y="760" width="110" height="50" as="geometry" />
        </mxCell>
        <mxCell id="MRD3C-GznaZoyH5pfZhT-45" value="SubClassB" style="html=1;whiteSpace=wrap;" parent="1" vertex="1">
          <mxGeometry x="490" y="760" width="110" height="50" as="geometry" />
        </mxCell>
        <mxCell id="MRD3C-GznaZoyH5pfZhT-46" value="" style="endArrow=block;endSize=16;endFill=0;html=1;rounded=0;exitX=0.5;exitY=0;exitDx=0;exitDy=0;entryX=0.25;entryY=1;entryDx=0;entryDy=0;" parent="1" source="MRD3C-GznaZoyH5pfZhT-44" target="MRD3C-GznaZoyH5pfZhT-43" edge="1">
          <mxGeometry width="160" relative="1" as="geometry">
            <mxPoint x="540" y="700" as="sourcePoint" />
            <mxPoint x="700" y="700" as="targetPoint" />
          </mxGeometry>
        </mxCell>
        <mxCell id="MRD3C-GznaZoyH5pfZhT-47" value="" style="endArrow=block;endSize=16;endFill=0;html=1;rounded=0;entryX=0.75;entryY=1;entryDx=0;entryDy=0;exitX=0.5;exitY=0;exitDx=0;exitDy=0;" parent="1" source="MRD3C-GznaZoyH5pfZhT-45" target="MRD3C-GznaZoyH5pfZhT-43" edge="1">
          <mxGeometry width="160" relative="1" as="geometry">
            <mxPoint x="520" y="730" as="sourcePoint" />
            <mxPoint x="680" y="730" as="targetPoint" />
          </mxGeometry>
        </mxCell>
        <mxCell id="MRD3C-GznaZoyH5pfZhT-51" value="&lt;h1 style=&quot;margin-top: 0px;&quot;&gt;Realization / Implementation&lt;/h1&gt;&lt;p&gt;Realization is a relationship between the blueprint class and the object containing its respective implementation details.&lt;/p&gt;" style="text;html=1;whiteSpace=wrap;overflow=hidden;rounded=0;" parent="1" vertex="1">
          <mxGeometry x="65" y="870" width="345" height="90" as="geometry" />
        </mxCell>
        <mxCell id="MRD3C-GznaZoyH5pfZhT-52" value="«interface»&lt;br&gt;&lt;b&gt;Owner&lt;/b&gt;" style="html=1;whiteSpace=wrap;" parent="1" vertex="1">
          <mxGeometry x="595" y="870" width="110" height="50" as="geometry" />
        </mxCell>
        <mxCell id="MRD3C-GznaZoyH5pfZhT-54" value="Informal" style="html=1;whiteSpace=wrap;" parent="1" vertex="1">
          <mxGeometry x="520" y="970" width="110" height="50" as="geometry" />
        </mxCell>
        <mxCell id="MRD3C-GznaZoyH5pfZhT-55" value="Corporation" style="html=1;whiteSpace=wrap;" parent="1" vertex="1">
          <mxGeometry x="680" y="970" width="110" height="50" as="geometry" />
        </mxCell>
        <mxCell id="MRD3C-GznaZoyH5pfZhT-56" value="" style="endArrow=block;dashed=1;endFill=0;endSize=12;html=1;rounded=0;exitX=0.5;exitY=0;exitDx=0;exitDy=0;entryX=0.25;entryY=1;entryDx=0;entryDy=0;" parent="1" source="MRD3C-GznaZoyH5pfZhT-54" target="MRD3C-GznaZoyH5pfZhT-52" edge="1">
          <mxGeometry width="160" relative="1" as="geometry">
            <mxPoint x="540" y="930" as="sourcePoint" />
            <mxPoint x="700" y="930" as="targetPoint" />
          </mxGeometry>
        </mxCell>
        <mxCell id="MRD3C-GznaZoyH5pfZhT-57" value="" style="endArrow=block;dashed=1;endFill=0;endSize=12;html=1;rounded=0;exitX=0.5;exitY=0;exitDx=0;exitDy=0;entryX=0.75;entryY=1;entryDx=0;entryDy=0;" parent="1" source="MRD3C-GznaZoyH5pfZhT-55" target="MRD3C-GznaZoyH5pfZhT-52" edge="1">
          <mxGeometry width="160" relative="1" as="geometry">
            <mxPoint x="670" y="940" as="sourcePoint" />
            <mxPoint x="830" y="940" as="targetPoint" />
          </mxGeometry>
        </mxCell>
        <mxCell id="MRD3C-GznaZoyH5pfZhT-59" value="«interface»&lt;br&gt;&lt;b&gt;Person&lt;/b&gt;" style="html=1;whiteSpace=wrap;" parent="1" vertex="1">
          <mxGeometry x="440" y="870" width="110" height="50" as="geometry" />
        </mxCell>
        <mxCell id="MRD3C-GznaZoyH5pfZhT-60" value="" style="endArrow=block;dashed=1;endFill=0;endSize=12;html=1;rounded=0;entryX=0.5;entryY=1;entryDx=0;entryDy=0;exitX=0.25;exitY=0;exitDx=0;exitDy=0;" parent="1" source="MRD3C-GznaZoyH5pfZhT-54" target="MRD3C-GznaZoyH5pfZhT-59" edge="1">
          <mxGeometry width="160" relative="1" as="geometry">
            <mxPoint x="330" y="1020" as="sourcePoint" />
            <mxPoint x="490" y="1020" as="targetPoint" />
          </mxGeometry>
        </mxCell>
        <mxCell id="MRD3C-GznaZoyH5pfZhT-61" value="Note: It is recommend to not have more than three levels of inheritance or implementation" style="text;html=1;align=center;verticalAlign=middle;whiteSpace=wrap;rounded=0;fillColor=#fff2cc;strokeColor=#d6b656;" parent="1" vertex="1">
          <mxGeometry x="70" y="970" width="315" height="50" as="geometry" />
        </mxCell>
        <mxCell id="MRD3C-GznaZoyH5pfZhT-62" value="&lt;h1 style=&quot;margin-top: 0px;&quot;&gt;Aggregation&lt;/h1&gt;&lt;p&gt;It is a type of association. It is a weak relationship. It represents the relation Class2 is part of Class1. Objects of Class1 and Class2 have separated lifetimes.&lt;/p&gt;" style="text;html=1;whiteSpace=wrap;overflow=hidden;rounded=0;" parent="1" vertex="1">
          <mxGeometry x="70" y="1080" width="300" height="110" as="geometry" />
        </mxCell>
        <mxCell id="MRD3C-GznaZoyH5pfZhT-63" value="&lt;h1 style=&quot;margin-top: 0px;&quot;&gt;Composition&lt;/h1&gt;&lt;p&gt;It is a type of association. It is a strong relationship. It is when parts that are destroyed then the whole is destroyed or it loses meaning. Objects of Class2 live and die with Class1&lt;/p&gt;" style="text;html=1;whiteSpace=wrap;overflow=hidden;rounded=0;" parent="1" vertex="1">
          <mxGeometry x="70" y="1230" width="310" height="120" as="geometry" />
        </mxCell>
        <mxCell id="MRD3C-GznaZoyH5pfZhT-64" value="Class1" style="html=1;whiteSpace=wrap;" parent="1" vertex="1">
          <mxGeometry x="480" y="1110" width="110" height="50" as="geometry" />
        </mxCell>
        <mxCell id="MRD3C-GznaZoyH5pfZhT-65" value="Class2" style="html=1;whiteSpace=wrap;" parent="1" vertex="1">
          <mxGeometry x="680" y="1110" width="110" height="50" as="geometry" />
        </mxCell>
        <mxCell id="MRD3C-GznaZoyH5pfZhT-66" value="Class1" style="html=1;whiteSpace=wrap;" parent="1" vertex="1">
          <mxGeometry x="480" y="1275" width="110" height="50" as="geometry" />
        </mxCell>
        <mxCell id="MRD3C-GznaZoyH5pfZhT-67" value="Class2" style="html=1;whiteSpace=wrap;" parent="1" vertex="1">
          <mxGeometry x="690" y="1275" width="110" height="50" as="geometry" />
        </mxCell>
        <mxCell id="MRD3C-GznaZoyH5pfZhT-68" value="" style="endArrow=diamondThin;endFill=1;endSize=24;html=1;rounded=0;entryX=1;entryY=0.5;entryDx=0;entryDy=0;exitX=0;exitY=0.5;exitDx=0;exitDy=0;" parent="1" source="MRD3C-GznaZoyH5pfZhT-67" target="MRD3C-GznaZoyH5pfZhT-66" edge="1">
          <mxGeometry width="160" relative="1" as="geometry">
            <mxPoint x="630" y="1370" as="sourcePoint" />
            <mxPoint x="790" y="1370" as="targetPoint" />
          </mxGeometry>
        </mxCell>
        <mxCell id="MRD3C-GznaZoyH5pfZhT-69" value="" style="endArrow=diamondThin;endFill=0;endSize=24;html=1;rounded=0;entryX=1;entryY=0.5;entryDx=0;entryDy=0;exitX=0;exitY=0.5;exitDx=0;exitDy=0;" parent="1" source="MRD3C-GznaZoyH5pfZhT-65" target="MRD3C-GznaZoyH5pfZhT-64" edge="1">
          <mxGeometry width="160" relative="1" as="geometry">
            <mxPoint x="630" y="1220" as="sourcePoint" />
            <mxPoint x="790" y="1220" as="targetPoint" />
          </mxGeometry>
        </mxCell>
        <mxCell id="MRD3C-GznaZoyH5pfZhT-70" value="TODO: Find a problem, an example or statement. That let&#39;s you create your UML diagram and create it. More than three entities and less than five." style="text;html=1;align=center;verticalAlign=middle;whiteSpace=wrap;rounded=0;" parent="1" vertex="1">
          <mxGeometry x="70" y="1400" width="450" height="50" as="geometry" />
        </mxCell>
        <mxCell id="uTPeltbkBN8PucFy3Olm-1" value="Text" style="text;html=1;align=center;verticalAlign=middle;whiteSpace=wrap;rounded=0;" parent="1" vertex="1">
          <mxGeometry x="520" y="450" width="60" height="30" as="geometry" />
        </mxCell>
        <mxCell id="uTPeltbkBN8PucFy3Olm-2" value="CLI TOOL" style="text;html=1;align=center;verticalAlign=middle;whiteSpace=wrap;rounded=0;fillColor=#dae8fc;strokeColor=#6c8ebf;" parent="1" vertex="1">
          <mxGeometry x="1280" y="60" width="120" height="30" as="geometry" />
        </mxCell>
        <mxCell id="uTPeltbkBN8PucFy3Olm-3" value="TestCase" style="swimlane;fontStyle=0;childLayout=stackLayout;horizontal=1;startSize=26;fillColor=none;horizontalStack=0;resizeParent=1;resizeParentMax=0;resizeLast=0;collapsible=1;marginBottom=0;whiteSpace=wrap;html=1;" parent="1" vertex="1">
          <mxGeometry x="1350" y="180" width="140" height="52" as="geometry" />
        </mxCell>
        <mxCell id="uTPeltbkBN8PucFy3Olm-12" value="TestSuite" style="swimlane;fontStyle=0;childLayout=stackLayout;horizontal=1;startSize=26;fillColor=none;horizontalStack=0;resizeParent=1;resizeParentMax=0;resizeLast=0;collapsible=1;marginBottom=0;whiteSpace=wrap;html=1;" parent="1" vertex="1">
          <mxGeometry x="1130" y="180" width="140" height="52" as="geometry" />
        </mxCell>
        <mxCell id="uTPeltbkBN8PucFy3Olm-13" value="" style="endArrow=diamondThin;endFill=0;endSize=24;html=1;rounded=0;entryX=1;entryY=0.5;entryDx=0;entryDy=0;exitX=0;exitY=0.5;exitDx=0;exitDy=0;" parent="1" source="uTPeltbkBN8PucFy3Olm-3" target="uTPeltbkBN8PucFy3Olm-12" edge="1">
          <mxGeometry width="160" relative="1" as="geometry">
            <mxPoint x="1340" y="330" as="sourcePoint" />
            <mxPoint x="1500" y="330" as="targetPoint" />
          </mxGeometry>
        </mxCell>
        <mxCell id="uTPeltbkBN8PucFy3Olm-14" value="TestCaseDocument" style="swimlane;fontStyle=0;childLayout=stackLayout;horizontal=1;startSize=26;fillColor=none;horizontalStack=0;resizeParent=1;resizeParentMax=0;resizeLast=0;collapsible=1;marginBottom=0;whiteSpace=wrap;html=1;" parent="1" vertex="1">
          <mxGeometry x="1570" y="389" width="140" height="52" as="geometry" />
        </mxCell>
        <mxCell id="uTPeltbkBN8PucFy3Olm-15" value="DocumentSection" style="swimlane;fontStyle=0;childLayout=stackLayout;horizontal=1;startSize=26;fillColor=none;horizontalStack=0;resizeParent=1;resizeParentMax=0;resizeLast=0;collapsible=1;marginBottom=0;whiteSpace=wrap;html=1;" parent="1" vertex="1">
          <mxGeometry x="1790" y="447" width="140" height="52" as="geometry" />
        </mxCell>
        <mxCell id="uTPeltbkBN8PucFy3Olm-16" value="" style="endArrow=diamondThin;endFill=1;endSize=24;html=1;rounded=0;entryX=1;entryY=0.5;entryDx=0;entryDy=0;exitX=0;exitY=0.5;exitDx=0;exitDy=0;" parent="1" source="uTPeltbkBN8PucFy3Olm-15" target="uTPeltbkBN8PucFy3Olm-14" edge="1">
          <mxGeometry width="160" relative="1" as="geometry">
            <mxPoint x="1800" y="489" as="sourcePoint" />
            <mxPoint x="1960" y="489" as="targetPoint" />
          </mxGeometry>
        </mxCell>
        <mxCell id="uTPeltbkBN8PucFy3Olm-17" value="ActionStep" style="swimlane;fontStyle=0;childLayout=stackLayout;horizontal=1;startSize=26;fillColor=none;horizontalStack=0;resizeParent=1;resizeParentMax=0;resizeLast=0;collapsible=1;marginBottom=0;whiteSpace=wrap;html=1;" parent="1" vertex="1">
          <mxGeometry x="1130" y="275" width="140" height="52" as="geometry" />
        </mxCell>
        <mxCell id="uTPeltbkBN8PucFy3Olm-18" value="AssertStep" style="swimlane;fontStyle=0;childLayout=stackLayout;horizontal=1;startSize=26;fillColor=none;horizontalStack=0;resizeParent=1;resizeParentMax=0;resizeLast=0;collapsible=1;marginBottom=0;whiteSpace=wrap;html=1;" parent="1" vertex="1">
          <mxGeometry x="1130" y="343" width="140" height="52" as="geometry" />
        </mxCell>
        <mxCell id="uTPeltbkBN8PucFy3Olm-19" value="TestStep" style="swimlane;fontStyle=0;childLayout=stackLayout;horizontal=1;startSize=26;fillColor=none;horizontalStack=0;resizeParent=1;resizeParentMax=0;resizeLast=0;collapsible=1;marginBottom=0;whiteSpace=wrap;html=1;" parent="1" vertex="1">
          <mxGeometry x="1350" y="307" width="140" height="52" as="geometry" />
        </mxCell>
        <mxCell id="uTPeltbkBN8PucFy3Olm-20" value="" style="endArrow=block;endSize=16;endFill=0;html=1;rounded=0;exitX=1;exitY=0.5;exitDx=0;exitDy=0;entryX=-0.001;entryY=0.405;entryDx=0;entryDy=0;entryPerimeter=0;" parent="1" source="uTPeltbkBN8PucFy3Olm-17" target="uTPeltbkBN8PucFy3Olm-19" edge="1">
          <mxGeometry width="160" relative="1" as="geometry">
            <mxPoint x="1290" y="375" as="sourcePoint" />
            <mxPoint x="1450" y="375" as="targetPoint" />
          </mxGeometry>
        </mxCell>
        <mxCell id="uTPeltbkBN8PucFy3Olm-21" value="" style="endArrow=block;endSize=16;endFill=0;html=1;rounded=0;exitX=1;exitY=0.5;exitDx=0;exitDy=0;entryX=0;entryY=0.75;entryDx=0;entryDy=0;" parent="1" source="uTPeltbkBN8PucFy3Olm-18" target="uTPeltbkBN8PucFy3Olm-19" edge="1">
          <mxGeometry width="160" relative="1" as="geometry">
            <mxPoint x="1310" y="385" as="sourcePoint" />
            <mxPoint x="1470" y="385" as="targetPoint" />
          </mxGeometry>
        </mxCell>
        <mxCell id="uTPeltbkBN8PucFy3Olm-26" value="IExporter" style="swimlane;fontStyle=0;childLayout=stackLayout;horizontal=1;startSize=26;fillColor=none;horizontalStack=0;resizeParent=1;resizeParentMax=0;resizeLast=0;collapsible=1;marginBottom=0;whiteSpace=wrap;html=1;" parent="1" vertex="1">
          <mxGeometry x="1360" y="495" width="140" height="52" as="geometry" />
        </mxCell>
        <mxCell id="uTPeltbkBN8PucFy3Olm-27" value="ConsoleExporter" style="swimlane;fontStyle=0;childLayout=stackLayout;horizontal=1;startSize=26;fillColor=none;horizontalStack=0;resizeParent=1;resizeParentMax=0;resizeLast=0;collapsible=1;marginBottom=0;whiteSpace=wrap;html=1;" parent="1" vertex="1">
          <mxGeometry x="1130" y="465" width="140" height="52" as="geometry" />
        </mxCell>
        <mxCell id="uTPeltbkBN8PucFy3Olm-28" value="MarkdownFileExporter" style="swimlane;fontStyle=0;childLayout=stackLayout;horizontal=1;startSize=26;fillColor=none;horizontalStack=0;resizeParent=1;resizeParentMax=0;resizeLast=0;collapsible=1;marginBottom=0;whiteSpace=wrap;html=1;" parent="1" vertex="1">
          <mxGeometry x="1130" y="527" width="140" height="52" as="geometry" />
        </mxCell>
        <mxCell id="uTPeltbkBN8PucFy3Olm-29" value="" style="endArrow=block;dashed=1;endFill=0;endSize=12;html=1;rounded=0;exitX=1;exitY=0.5;exitDx=0;exitDy=0;entryX=0;entryY=0.25;entryDx=0;entryDy=0;" parent="1" source="uTPeltbkBN8PucFy3Olm-27" target="uTPeltbkBN8PucFy3Olm-26" edge="1">
          <mxGeometry width="160" relative="1" as="geometry">
            <mxPoint x="1300" y="485" as="sourcePoint" />
            <mxPoint x="1460" y="485" as="targetPoint" />
          </mxGeometry>
        </mxCell>
        <mxCell id="uTPeltbkBN8PucFy3Olm-30" value="" style="endArrow=block;dashed=1;endFill=0;endSize=12;html=1;rounded=0;exitX=1;exitY=0.5;exitDx=0;exitDy=0;entryX=0;entryY=0.75;entryDx=0;entryDy=0;" parent="1" source="uTPeltbkBN8PucFy3Olm-28" target="uTPeltbkBN8PucFy3Olm-26" edge="1">
          <mxGeometry width="160" relative="1" as="geometry">
            <mxPoint x="1330" y="525" as="sourcePoint" />
            <mxPoint x="1420" y="542" as="targetPoint" />
          </mxGeometry>
        </mxCell>
        <mxCell id="uTPeltbkBN8PucFy3Olm-32" value="CliRunner" style="swimlane;fontStyle=0;childLayout=stackLayout;horizontal=1;startSize=26;fillColor=none;horizontalStack=0;resizeParent=1;resizeParentMax=0;resizeLast=0;collapsible=1;marginBottom=0;whiteSpace=wrap;html=1;" parent="1" vertex="1">
          <mxGeometry x="1570" y="495" width="140" height="52" as="geometry" />
        </mxCell>
        <mxCell id="uTPeltbkBN8PucFy3Olm-33" value="" style="endArrow=none;html=1;edgeStyle=orthogonalEdgeStyle;rounded=0;exitX=1;exitY=0.5;exitDx=0;exitDy=0;entryX=0;entryY=0.5;entryDx=0;entryDy=0;" parent="1" source="uTPeltbkBN8PucFy3Olm-26" target="uTPeltbkBN8PucFy3Olm-32" edge="1">
          <mxGeometry relative="1" as="geometry">
            <mxPoint x="1530" y="579" as="sourcePoint" />
            <mxPoint x="1630" y="579" as="targetPoint" />
          </mxGeometry>
        </mxCell>
        <mxCell id="uTPeltbkBN8PucFy3Olm-34" value="TestCaseBuilder" style="swimlane;fontStyle=0;childLayout=stackLayout;horizontal=1;startSize=26;fillColor=none;horizontalStack=0;resizeParent=1;resizeParentMax=0;resizeLast=0;collapsible=1;marginBottom=0;whiteSpace=wrap;html=1;" parent="1" vertex="1">
          <mxGeometry x="1700" y="205" width="140" height="52" as="geometry" />
        </mxCell>
        <mxCell id="uTPeltbkBN8PucFy3Olm-35" value="Template" style="swimlane;fontStyle=0;childLayout=stackLayout;horizontal=1;startSize=26;fillColor=none;horizontalStack=0;resizeParent=1;resizeParentMax=0;resizeLast=0;collapsible=1;marginBottom=0;whiteSpace=wrap;html=1;" parent="1" vertex="1">
          <mxGeometry x="1920" y="205" width="140" height="52" as="geometry" />
        </mxCell>
        <mxCell id="uTPeltbkBN8PucFy3Olm-36" value="TemplateLibrary" style="swimlane;fontStyle=0;childLayout=stackLayout;horizontal=1;startSize=26;fillColor=none;horizontalStack=0;resizeParent=1;resizeParentMax=0;resizeLast=0;collapsible=1;marginBottom=0;whiteSpace=wrap;html=1;" parent="1" vertex="1">
          <mxGeometry x="1810" y="307" width="140" height="52" as="geometry" />
        </mxCell>
        <mxCell id="uTPeltbkBN8PucFy3Olm-38" value="" style="endArrow=none;html=1;rounded=0;exitX=0.5;exitY=1;exitDx=0;exitDy=0;entryX=0.25;entryY=0;entryDx=0;entryDy=0;" parent="1" source="uTPeltbkBN8PucFy3Olm-34" target="uTPeltbkBN8PucFy3Olm-36" edge="1">
          <mxGeometry relative="1" as="geometry">
            <mxPoint x="1750" y="392.76" as="sourcePoint" />
            <mxPoint x="1820" y="392.76" as="targetPoint" />
          </mxGeometry>
        </mxCell>
        <mxCell id="uTPeltbkBN8PucFy3Olm-39" value="" style="endArrow=diamondThin;endFill=1;endSize=24;html=1;rounded=0;exitX=0.5;exitY=1;exitDx=0;exitDy=0;entryX=0.75;entryY=0;entryDx=0;entryDy=0;" parent="1" source="uTPeltbkBN8PucFy3Olm-35" target="uTPeltbkBN8PucFy3Olm-36" edge="1">
          <mxGeometry width="160" relative="1" as="geometry">
            <mxPoint x="2000" y="307" as="sourcePoint" />
            <mxPoint x="2160" y="307" as="targetPoint" />
          </mxGeometry>
        </mxCell>
        <mxCell id="uTPeltbkBN8PucFy3Olm-40" value="Note: We won&#39;t have a test library and the test will depend on the test case" style="text;html=1;align=center;verticalAlign=middle;whiteSpace=wrap;rounded=0;fillColor=#f8cecc;strokeColor=#b85450;" parent="1" vertex="1">
          <mxGeometry x="1550" y="50" width="310" height="30" as="geometry" />
        </mxCell>
        <mxCell id="uTPeltbkBN8PucFy3Olm-41" value="" style="endArrow=diamondThin;endFill=1;endSize=24;html=1;rounded=0;exitX=0.5;exitY=0;exitDx=0;exitDy=0;entryX=0.5;entryY=1;entryDx=0;entryDy=0;" parent="1" source="uTPeltbkBN8PucFy3Olm-19" target="uTPeltbkBN8PucFy3Olm-3" edge="1">
          <mxGeometry width="160" relative="1" as="geometry">
            <mxPoint x="1470" y="260" as="sourcePoint" />
            <mxPoint x="1630" y="260" as="targetPoint" />
          </mxGeometry>
        </mxCell>
        <mxCell id="uTPeltbkBN8PucFy3Olm-42" value="" style="endArrow=none;html=1;rounded=0;exitX=0.5;exitY=0;exitDx=0;exitDy=0;entryX=0.5;entryY=1;entryDx=0;entryDy=0;" parent="1" source="uTPeltbkBN8PucFy3Olm-32" target="uTPeltbkBN8PucFy3Olm-14" edge="1">
          <mxGeometry relative="1" as="geometry">
            <mxPoint x="1630" y="598.4300000000001" as="sourcePoint" />
            <mxPoint x="1700" y="598.4300000000001" as="targetPoint" />
          </mxGeometry>
        </mxCell>
        <mxCell id="uTPeltbkBN8PucFy3Olm-43" value="" style="endArrow=none;html=1;rounded=0;exitX=0.25;exitY=1;exitDx=0;exitDy=0;entryX=0.5;entryY=0;entryDx=0;entryDy=0;" parent="1" source="uTPeltbkBN8PucFy3Olm-34" target="uTPeltbkBN8PucFy3Olm-14" edge="1">
          <mxGeometry relative="1" as="geometry">
            <mxPoint x="1560" y="459" as="sourcePoint" />
            <mxPoint x="1630" y="459" as="targetPoint" />
          </mxGeometry>
        </mxCell>
        <mxCell id="uTPeltbkBN8PucFy3Olm-44" value="" style="endArrow=none;html=1;rounded=0;exitX=0;exitY=0.5;exitDx=0;exitDy=0;entryX=1;entryY=0.5;entryDx=0;entryDy=0;" parent="1" source="uTPeltbkBN8PucFy3Olm-34" target="uTPeltbkBN8PucFy3Olm-3" edge="1">
          <mxGeometry relative="1" as="geometry">
            <mxPoint x="1665" y="175" as="sourcePoint" />
            <mxPoint x="1570" y="307" as="targetPoint" />
          </mxGeometry>
        </mxCell>
      </root>
    </mxGraphModel>
  </diagram>
</mxfile>
